<svg xmlns="http://www.w3.org/2000/svg" width="100" height="62" viewBox="0 -10 100 62">
  <!-- Ноги (под телом, чтобы силуэт читался по бокам) -->
  <g stroke="#3a1d10" stroke-width="2.6" stroke-linecap="round" fill="none">
    <path d="M20,32 L16.5,34.8 L14.4,34.1" />
    <path d="M27,35 L24.55,38.85 L22.1,38.85" />
    <path d="M35,34 L34.65,38.2 L32.55,39.6" />
    <path d="M55,34 L56.05,38.2 L53.95,39.6" />
    <path d="M61,32 L63.45,36.2 L62.05,38.3" />
    <path d="M67,29 L70.85,32.15 L72.95,31.45" />
  </g>

  <!-- Усики -->
  <path d="M76,17 Q84,4 94,2" stroke="#3a1d10" stroke-width="2.4" stroke-linecap="round" fill="none" />
  <path d="M73,15 Q78,2 86,-4" stroke="#3a1d10" stroke-width="2.4" stroke-linecap="round" fill="none" />

  <!-- Брюшко -->
  <ellipse cx="25" cy="26" rx="22" ry="15" fill="#a8462e" stroke="#5c2416" stroke-width="2" />
  <path d="M14,15 Q25,20 14,37" stroke="#7a2f1c" stroke-width="2" fill="none" opacity="0.6" />
  <path d="M22,13 Q34,20 22,39" stroke="#7a2f1c" stroke-width="2" fill="none" opacity="0.6" />
  <path d="M31,14 Q41,20 31,38" stroke="#7a2f1c" stroke-width="2" fill="none" opacity="0.6" />
  <ellipse cx="18" cy="20" rx="7" ry="4" fill="#c96449" opacity="0.55" />

  <!-- Грудь -->
  <ellipse cx="51" cy="27" rx="13" ry="11" fill="#b14f34" stroke="#5c2416" stroke-width="2" />

  <!-- Голова -->
  <ellipse cx="73" cy="23" rx="12" ry="10.5" fill="#c1543a" stroke="#5c2416" stroke-width="2" />

  <!-- Челюсти -->
  <path d="M83,25 L92,22 L84,29 Z" fill="#3a1d10" />
  <path d="M83,20 L92,16 L85,24 Z" fill="#3a1d10" />

  <!-- Глаз (крестик — потух, как только муравей упал) -->
  <path d="M73,15 L78,20 M78,15 L73,20" stroke="#151008" stroke-width="1.6" stroke-linecap="round" />
</svg>
