<svg xmlns="http://www.w3.org/2000/svg" width="100" height="62" viewBox="0 -10 100 62">
  <g transform="translate(0,0.7)">
  <!-- Ноги (под телом, чтобы силуэт читался по бокам) -->
  <g stroke="#3a1d10" stroke-width="2.6" stroke-linecap="round" fill="none">
    <path d="M20,32 L8.77,38.16 L3.21,35.16" />
    <path d="M27,35 L22,47.04 L15.1,48.24" />
    <path d="M35,34 L31.95,45.65 L25.35,48.56" />
    <path d="M55,34 L60.02,45.31 L54.8,50.28" />
    <path d="M61,32 L65.83,45.02 L60.86,50.25" />
    <path d="M67,29 L79.38,35.97 L84.95,32.97" />
  </g>

  <!-- Усики -->
  <path d="M76,17 Q85.32,4.91 95.47,3.96" stroke="#3a1d10" stroke-width="2.4" stroke-linecap="round" fill="none" />
  <path d="M73,15 Q79.33,2.59 87.91,-2.54" stroke="#3a1d10" stroke-width="2.4" stroke-linecap="round" fill="none" />

  <!-- Брюшко -->
  <ellipse cx="25" cy="26" rx="22" ry="15" fill="#a8462e" stroke="#5c2416" stroke-width="2" />
  <path d="M14,15 Q25,20 14,37" stroke="#7a2f1c" stroke-width="2" fill="none" opacity="0.6" />
  <path d="M22,13 Q34,20 22,39" stroke="#7a2f1c" stroke-width="2" fill="none" opacity="0.6" />
  <path d="M31,14 Q41,20 31,38" stroke="#7a2f1c" stroke-width="2" fill="none" opacity="0.6" />
  <ellipse cx="18" cy="20" rx="7" ry="4" fill="#c96449" opacity="0.55" />

  <!-- Грудь -->
  <ellipse cx="51" cy="27" rx="13" ry="11" fill="#b14f34" stroke="#5c2416" stroke-width="2" />

  <!-- Голова -->
  <ellipse cx="73" cy="23" rx="12" ry="10.5" fill="#c1543a" stroke="#5c2416" stroke-width="2" />

  <!-- Челюсти -->
  <path d="M83,25 L92,22 L84,29 Z" fill="#3a1d10" />
  <path d="M83,20 L92,16 L85,24 Z" fill="#3a1d10" />

  <!-- Глаз -->
  <circle cx="76" cy="18" r="3.6" fill="#151008" />
  <circle cx="75" cy="16.5" r="1.2" fill="#ffffff" />
  </g>
</svg>
